<svg width="100" height="100" viewBox="0 0 100 100" fill="none" xmlns="http://www.w3.org/2000/svg">
<rect width="100" height="100" rx="50" fill="white"/>
<path d="M59.334 34.167H61.2939C62.7911 34.1671 64.1682 34.9783 64.9209 36.2744V36.2734L66.4111 38.8809V38.8818C66.4186 38.8952 66.4247 38.9212 66.4043 38.9561C66.3948 38.9723 66.3823 38.9834 66.3711 38.9902C66.3614 38.9961 66.3502 38.9999 66.334 39C62.8378 39 60 41.8378 60 45.334V52.334C60.0002 55.83 62.838 58.667 66.334 58.667H72.167C72.5442 58.667 72.834 58.9568 72.834 59.334V61.667C72.834 65.1027 70.1854 67.9028 66.8135 68.1475C66.5445 64.2616 63.2853 61.1672 59.334 61.167C55.3759 61.167 52.112 64.2718 51.8525 68.167H48.1484C47.889 64.2718 44.6251 61.167 40.667 61.167C36.7155 61.167 33.4555 64.2614 33.1865 68.1475C29.8149 67.9025 27.167 65.1025 27.167 61.667V57C27.1672 55.9931 27.9931 55.1672 29 55.167H51.167C54.663 55.167 57.4998 52.33 57.5 48.834V36C57.5002 35.0558 58.2267 34.271 59.1475 34.1768L59.334 34.167Z" fill="#05422C" stroke="#05422C"/>
<path d="M40.667 64.5C42.968 64.5002 44.833 66.3659 44.833 68.667C44.8328 70.9679 42.9679 72.8328 40.667 72.833C38.3659 72.833 36.5002 70.968 36.5 68.667C36.5 66.3658 38.3658 64.5 40.667 64.5Z" fill="#C3D2CC" stroke="#C3D2CC"/>
<path d="M59.334 64.5C61.635 64.5002 63.5 66.3659 63.5 68.667C63.4998 70.9679 61.6349 72.8328 59.334 72.833C57.0329 72.833 55.1672 70.968 55.167 68.667C55.167 66.3658 57.0328 64.5 59.334 64.5Z" fill="#C3D2CC" stroke="#C3D2CC"/>
<path d="M73.3333 51.2367V54.6667H66.3333C65.05 54.6667 64 53.6167 64 52.3333V45.3333C64 44.05 65.05 43 66.3333 43H69.3433L72.7267 48.9267C73.1233 49.6267 73.3333 50.42 73.3333 51.2367Z" fill="#C3D2CC"/>
<path d="M52.5194 26.667H35.276C31.0993 26.667 27.5993 29.6537 26.8293 33.6203H37.026C37.9127 33.6203 38.6127 34.3437 38.6127 35.2303C38.6127 36.117 37.9127 36.817 37.026 36.817H26.666V40.037H32.7327C33.6193 40.037 34.3427 40.7603 34.3427 41.647C34.3427 42.5337 33.6193 43.2337 32.7327 43.2337H26.666V46.4537H28.4627C29.3493 46.4537 30.0727 47.177 30.0727 48.0637C30.0727 48.9503 29.3493 49.6503 28.4627 49.6503H26.666V50.187C26.666 51.4703 27.716 52.5203 28.9993 52.5203H50.3493C52.7293 52.5203 54.666 50.5837 54.666 48.2037V28.8137C54.666 27.6237 53.7094 26.667 52.5194 26.667Z" fill="#05422C"/>
<path d="M26.8297 33.6201H26.4797H24.193C23.3063 33.6201 22.583 34.3435 22.583 35.2301C22.583 36.1168 23.3063 36.8168 24.193 36.8168H26.3163H26.6663V35.2768C26.6663 34.7168 26.7363 34.1568 26.8297 33.6201Z" fill="#05422C"/>
<path d="M26.3163 40.0371H24.193C23.3063 40.0371 22.583 40.7604 22.583 41.6471C22.583 42.5338 23.3063 43.2338 24.193 43.2338H26.3163H26.6663V40.0371H26.3163Z" fill="#05422C"/>
<path d="M26.3163 46.4541H24.193C23.3063 46.4541 22.583 47.1774 22.583 48.0641C22.583 48.9508 23.3063 49.6508 24.193 49.6508H26.3163H26.6663V46.4541H26.3163Z" fill="#05422C"/>
<rect x="30" y="84" width="40" height="4" rx="2" fill="#F2F6F4"/>
</svg>
