<svg width="164" height="48" viewBox="0 0 164 48" fill="none" xmlns="http://www.w3.org/2000/svg">
<rect x="0.5" width="163" height="21" rx="10.5" fill="white"/>
<path d="M7.36544 6.25482L8.24544 8.01482C8.36544 8.25982 8.68544 8.49482 8.95544 8.53982L10.5504 8.80482C11.5704 8.97482 11.8104 9.71482 11.0754 10.4448L9.83544 11.6848C9.62544 11.8948 9.51044 12.2998 9.57544 12.5898L9.93044 14.1248C10.2104 15.3398 9.56544 15.8098 8.49044 15.1748L6.99544 14.2898C6.72544 14.1298 6.28044 14.1298 6.00544 14.2898L4.51044 15.1748C3.44044 15.8098 2.79044 15.3348 3.07044 14.1248L3.42544 12.5898C3.49044 12.2998 3.37544 11.8948 3.16544 11.6848L1.92544 10.4448C1.19544 9.71482 1.43044 8.97482 2.45044 8.80482L4.04544 8.53982C4.31044 8.49482 4.63044 8.25982 4.75044 8.01482L5.63044 6.25482C6.11044 5.29982 6.89044 5.29982 7.36544 6.25482Z" fill="#F2BC1B" stroke="#F2BC1B" stroke-width="1.5" stroke-linecap="round" stroke-linejoin="round"/>
<path d="M23.428 16V8.104L23.778 8.188L20.558 12.122L20.502 11.954H26.592V13.34H19.564L18.92 12.08L23.722 6.2H24.884V16H23.428ZM28.7776 16.154C28.4696 16.154 28.2316 16.0653 28.0636 15.888C27.8956 15.7013 27.8116 15.44 27.8116 15.104C27.8116 14.796 27.9003 14.544 28.0776 14.348C28.255 14.152 28.4883 14.054 28.7776 14.054C29.0856 14.054 29.3236 14.1473 29.4916 14.334C29.6596 14.5113 29.7436 14.768 29.7436 15.104C29.7436 15.412 29.655 15.664 29.4776 15.86C29.3003 16.056 29.067 16.154 28.7776 16.154ZM34.3292 16C33.8439 16 33.3912 15.916 32.9712 15.748C32.5605 15.5707 32.2012 15.328 31.8932 15.02C31.5945 14.712 31.3565 14.348 31.1792 13.928C31.0112 13.508 30.9272 13.046 30.9272 12.542C30.9272 12.29 30.9599 12.01 31.0252 11.702C31.0999 11.3847 31.2072 11.0393 31.3472 10.666C31.4965 10.2927 31.6739 9.90067 31.8792 9.49C32.0845 9.07 32.3225 8.636 32.5932 8.188L33.8672 6.032H35.3372L35.3932 6.172L33.8532 8.762C33.5732 9.238 33.3212 9.69067 33.0972 10.12C32.8825 10.5493 32.7005 10.9553 32.5512 11.338C32.4019 11.7113 32.2899 12.052 32.2152 12.36L31.8792 10.918C32.0565 10.6287 32.2479 10.3767 32.4532 10.162C32.6585 9.938 32.8779 9.75133 33.1112 9.602C33.3539 9.45267 33.6059 9.34067 33.8672 9.266C34.1285 9.19133 34.3992 9.154 34.6792 9.154C35.2205 9.154 35.7152 9.30333 36.1632 9.602C36.6205 9.89133 36.9845 10.2787 37.2552 10.764C37.5352 11.2493 37.6752 11.7813 37.6752 12.36C37.6752 13.06 37.5305 13.6853 37.2412 14.236C36.9612 14.7773 36.5692 15.2067 36.0652 15.524C35.5612 15.8413 34.9825 16 34.3292 16ZM34.3292 14.6C34.6932 14.6 35.0152 14.516 35.2952 14.348C35.5845 14.1707 35.8085 13.928 35.9672 13.62C36.1352 13.3027 36.2192 12.9433 36.2192 12.542C36.2192 12.1967 36.1352 11.8747 35.9672 11.576C35.7992 11.268 35.5752 11.0207 35.2952 10.834C35.0152 10.6473 34.7025 10.554 34.3572 10.554C33.9745 10.554 33.6339 10.6427 33.3352 10.82C33.0365 10.9973 32.8032 11.2353 32.6352 11.534C32.4672 11.8327 32.3832 12.164 32.3832 12.528C32.3832 12.92 32.4672 13.2747 32.6352 13.592C32.8032 13.9 33.0319 14.1473 33.3212 14.334C33.6105 14.5113 33.9465 14.6 34.3292 14.6ZM38.4122 17.848L44.1802 6.2H45.5662L39.8122 17.848H38.4122ZM49.5511 16.098C48.9071 16.098 48.3238 15.9533 47.8011 15.664C47.2785 15.3653 46.8445 14.9407 46.4991 14.39L47.3391 13.452C47.7778 13.9373 48.1605 14.2687 48.4871 14.446C48.8138 14.6233 49.1685 14.712 49.5511 14.712C49.9338 14.712 50.2791 14.628 50.5871 14.46C50.8951 14.292 51.1378 14.0633 51.3151 13.774C51.5018 13.4847 51.5951 13.1627 51.5951 12.808C51.5951 12.4347 51.5065 12.1033 51.3291 11.814C51.1611 11.5153 50.9325 11.282 50.6431 11.114C50.3538 10.9367 50.0271 10.848 49.6631 10.848C49.4858 10.848 49.3178 10.862 49.1591 10.89C49.0005 10.9087 48.8091 10.96 48.5851 11.044C48.3611 11.128 48.0671 11.2587 47.7031 11.436L46.9051 10.358L47.4791 6.2H52.7711V7.6H48.4311L48.7251 7.334L48.2631 10.442L47.9131 10.036C48.0065 9.94267 48.1651 9.854 48.3891 9.77C48.6131 9.67667 48.8605 9.602 49.1311 9.546C49.4111 9.48067 49.6771 9.448 49.9291 9.448C50.5265 9.448 51.0585 9.588 51.5251 9.868C52.0011 10.1387 52.3745 10.5167 52.6451 11.002C52.9251 11.4873 53.0651 12.0427 53.0651 12.668C53.0651 13.312 52.9111 13.8953 52.6031 14.418C52.2951 14.9313 51.8751 15.342 51.3431 15.65C50.8111 15.9487 50.2138 16.098 49.5511 16.098Z" fill="#060709"/>
<line x1="67" y1="4.5" x2="67" y2="16.5" stroke="#C8C9CB"/>
<path d="M81.538 15.314V7.362L82.056 7.754L80.124 8.776L79.718 7.46L82.336 6.06H83.064V15.314H81.538ZM79.984 16V14.544H84.66V16H79.984ZM89.014 16.14C88.3233 16.14 87.7213 15.9813 87.208 15.664C86.704 15.3467 86.228 14.8147 85.78 14.068L86.956 13.326C87.1893 13.6713 87.418 13.956 87.642 14.18C87.8753 14.3947 88.1133 14.5533 88.356 14.656C88.5987 14.7587 88.8553 14.81 89.126 14.81C89.4527 14.81 89.756 14.7307 90.036 14.572C90.316 14.404 90.54 14.1753 90.708 13.886C90.876 13.5967 90.96 13.27 90.96 12.906C90.96 12.542 90.8947 12.234 90.764 11.982C90.6333 11.7207 90.442 11.5247 90.19 11.394C89.938 11.254 89.6393 11.184 89.294 11.184C89.1353 11.184 88.9673 11.2027 88.79 11.24C88.622 11.268 88.44 11.3147 88.244 11.38C88.048 11.436 87.8333 11.5107 87.6 11.604L87.18 10.498L90.204 7.166L90.498 7.6H86.326V6.2H91.94L92.22 6.76L89.014 10.316L88.664 9.952C88.7387 9.91467 88.86 9.882 89.028 9.854C89.2053 9.81667 89.35 9.798 89.462 9.798C89.8727 9.798 90.2553 9.87733 90.61 10.036C90.974 10.1853 91.2867 10.4 91.548 10.68C91.8187 10.9507 92.0287 11.2727 92.178 11.646C92.3367 12.01 92.416 12.402 92.416 12.822C92.416 13.4567 92.262 14.026 91.954 14.53C91.6553 15.0247 91.2493 15.4167 90.736 15.706C90.2227 15.9953 89.6487 16.14 89.014 16.14ZM96.5082 16.098C95.8642 16.098 95.2808 15.9533 94.7582 15.664C94.2355 15.3653 93.8015 14.9407 93.4562 14.39L94.2962 13.452C94.7348 13.9373 95.1175 14.2687 95.4442 14.446C95.7708 14.6233 96.1255 14.712 96.5082 14.712C96.8908 14.712 97.2362 14.628 97.5442 14.46C97.8522 14.292 98.0948 14.0633 98.2722 13.774C98.4588 13.4847 98.5522 13.1627 98.5522 12.808C98.5522 12.4347 98.4635 12.1033 98.2862 11.814C98.1182 11.5153 97.8895 11.282 97.6002 11.114C97.3108 10.9367 96.9842 10.848 96.6202 10.848C96.4428 10.848 96.2748 10.862 96.1162 10.89C95.9575 10.9087 95.7662 10.96 95.5422 11.044C95.3182 11.128 95.0242 11.2587 94.6602 11.436L93.8622 10.358L94.4362 6.2H99.7282V7.6H95.3882L95.6822 7.334L95.2202 10.442L94.8702 10.036C94.9635 9.94267 95.1222 9.854 95.3462 9.77C95.5702 9.67667 95.8175 9.602 96.0882 9.546C96.3682 9.48067 96.6342 9.448 96.8862 9.448C97.4835 9.448 98.0155 9.588 98.4822 9.868C98.9582 10.1387 99.3315 10.5167 99.6022 11.002C99.8822 11.4873 100.022 12.0427 100.022 12.668C100.022 13.312 99.8682 13.8953 99.5602 14.418C99.2522 14.9313 98.8322 15.342 98.3002 15.65C97.7682 15.9487 97.1708 16.098 96.5082 16.098Z" fill="#060709"/>
<path d="M108.872 16V6.2H113.044C113.604 6.2 114.117 6.34 114.584 6.62C115.06 6.89067 115.438 7.264 115.718 7.74C115.998 8.20667 116.138 8.734 116.138 9.322C116.138 9.854 115.998 10.3487 115.718 10.806C115.438 11.2633 115.065 11.632 114.598 11.912C114.131 12.1827 113.613 12.318 113.044 12.318H110.384V16H108.872ZM114.696 16L112.204 11.576L113.758 11.226L116.53 16.014L114.696 16ZM110.384 10.862H113.184C113.455 10.862 113.697 10.7967 113.912 10.666C114.127 10.526 114.295 10.3393 114.416 10.106C114.537 9.86333 114.598 9.59733 114.598 9.308C114.598 8.98133 114.519 8.69667 114.36 8.454C114.211 8.202 113.996 8.006 113.716 7.866C113.445 7.726 113.137 7.656 112.792 7.656H110.384V10.862ZM121.399 16.14C120.643 16.14 119.971 15.9813 119.383 15.664C118.804 15.3373 118.347 14.894 118.011 14.334C117.684 13.774 117.521 13.13 117.521 12.402C117.521 11.8233 117.614 11.296 117.801 10.82C117.988 10.344 118.244 9.93333 118.571 9.588C118.907 9.23333 119.304 8.96267 119.761 8.776C120.228 8.58 120.732 8.482 121.273 8.482C121.749 8.482 122.192 8.57533 122.603 8.762C123.014 8.93933 123.368 9.18667 123.667 9.504C123.975 9.82133 124.208 10.1993 124.367 10.638C124.535 11.0673 124.614 11.5387 124.605 12.052L124.591 12.668H118.585L118.263 11.52H123.345L123.135 11.758V11.422C123.107 11.114 123.004 10.8387 122.827 10.596C122.65 10.3533 122.426 10.162 122.155 10.022C121.884 9.882 121.59 9.812 121.273 9.812C120.769 9.812 120.344 9.91 119.999 10.106C119.654 10.2927 119.392 10.5727 119.215 10.946C119.038 11.31 118.949 11.7627 118.949 12.304C118.949 12.8173 119.056 13.2653 119.271 13.648C119.486 14.0213 119.789 14.3107 120.181 14.516C120.573 14.7213 121.026 14.824 121.539 14.824C121.903 14.824 122.239 14.7633 122.547 14.642C122.864 14.5207 123.205 14.3013 123.569 13.984L124.297 15.006C124.073 15.23 123.798 15.426 123.471 15.594C123.154 15.762 122.813 15.8973 122.449 16C122.094 16.0933 121.744 16.14 121.399 16.14ZM128.443 16L125.335 8.65H126.889L129.129 14.152L128.863 14.278L131.257 8.65H132.741L129.479 16H128.443ZM134.299 16V8.65H135.741V16H134.299ZM134.999 7.026C134.691 7.026 134.453 6.94667 134.285 6.788C134.117 6.62933 134.033 6.40533 134.033 6.116C134.033 5.84533 134.117 5.626 134.285 5.458C134.462 5.29 134.7 5.206 134.999 5.206C135.307 5.206 135.545 5.28533 135.713 5.444C135.881 5.60267 135.965 5.82667 135.965 6.116C135.965 6.38667 135.876 6.606 135.699 6.774C135.531 6.942 135.297 7.026 134.999 7.026ZM141.387 16.14C140.631 16.14 139.959 15.9813 139.371 15.664C138.793 15.3373 138.335 14.894 137.999 14.334C137.673 13.774 137.509 13.13 137.509 12.402C137.509 11.8233 137.603 11.296 137.789 10.82C137.976 10.344 138.233 9.93333 138.559 9.588C138.895 9.23333 139.292 8.96267 139.749 8.776C140.216 8.58 140.72 8.482 141.261 8.482C141.737 8.482 142.181 8.57533 142.591 8.762C143.002 8.93933 143.357 9.18667 143.655 9.504C143.963 9.82133 144.197 10.1993 144.355 10.638C144.523 11.0673 144.603 11.5387 144.593 12.052L144.579 12.668H138.573L138.251 11.52H143.333L143.123 11.758V11.422C143.095 11.114 142.993 10.8387 142.815 10.596C142.638 10.3533 142.414 10.162 142.143 10.022C141.873 9.882 141.579 9.812 141.261 9.812C140.757 9.812 140.333 9.91 139.987 10.106C139.642 10.2927 139.381 10.5727 139.203 10.946C139.026 11.31 138.937 11.7627 138.937 12.304C138.937 12.8173 139.045 13.2653 139.259 13.648C139.474 14.0213 139.777 14.3107 140.169 14.516C140.561 14.7213 141.014 14.824 141.527 14.824C141.891 14.824 142.227 14.7633 142.535 14.642C142.853 14.5207 143.193 14.3013 143.557 13.984L144.285 15.006C144.061 15.23 143.786 15.426 143.459 15.594C143.142 15.762 142.801 15.8973 142.437 16C142.083 16.0933 141.733 16.14 141.387 16.14ZM147.83 16L145.324 8.65L146.78 8.636L148.572 14.138L148.25 14.11L150.196 9.812H151.064L153.024 14.124L152.646 14.152L154.452 8.65H155.908L153.43 16H152.436L150.392 11.324L150.714 11.366L148.81 16H147.83ZM159.603 16.14C158.987 16.14 158.431 16.0327 157.937 15.818C157.442 15.6033 157.031 15.286 156.705 14.866L157.685 14.026C157.965 14.3527 158.268 14.5907 158.595 14.74C158.931 14.88 159.309 14.95 159.729 14.95C159.897 14.95 160.051 14.9313 160.191 14.894C160.34 14.8473 160.466 14.782 160.569 14.698C160.681 14.614 160.765 14.516 160.821 14.404C160.877 14.2827 160.905 14.152 160.905 14.012C160.905 13.7693 160.816 13.5733 160.639 13.424C160.545 13.3587 160.396 13.2887 160.191 13.214C159.995 13.13 159.738 13.046 159.421 12.962C158.879 12.822 158.436 12.6633 158.091 12.486C157.745 12.3087 157.479 12.108 157.293 11.884C157.153 11.7067 157.05 11.5153 156.985 11.31C156.919 11.0953 156.887 10.862 156.887 10.61C156.887 10.302 156.952 10.022 157.083 9.77C157.223 9.50867 157.409 9.28467 157.643 9.098C157.885 8.902 158.165 8.75267 158.483 8.65C158.809 8.54733 159.155 8.496 159.519 8.496C159.864 8.496 160.205 8.54267 160.541 8.636C160.886 8.72933 161.203 8.86467 161.493 9.042C161.782 9.21933 162.025 9.42933 162.221 9.672L161.395 10.582C161.217 10.4047 161.021 10.2507 160.807 10.12C160.601 9.98 160.391 9.87267 160.177 9.798C159.962 9.72333 159.766 9.686 159.589 9.686C159.393 9.686 159.215 9.70467 159.057 9.742C158.898 9.77933 158.763 9.83533 158.651 9.91C158.548 9.98467 158.469 10.078 158.413 10.19C158.357 10.302 158.329 10.428 158.329 10.568C158.338 10.6893 158.366 10.806 158.413 10.918C158.469 11.0207 158.543 11.1093 158.637 11.184C158.739 11.2587 158.893 11.338 159.099 11.422C159.304 11.506 159.565 11.5853 159.883 11.66C160.349 11.7813 160.732 11.9167 161.031 12.066C161.339 12.206 161.581 12.3693 161.759 12.556C161.945 12.7333 162.076 12.9387 162.151 13.172C162.225 13.4053 162.263 13.6667 162.263 13.956C162.263 14.376 162.141 14.754 161.899 15.09C161.665 15.4167 161.348 15.6733 160.947 15.86C160.545 16.0467 160.097 16.14 159.603 16.14Z" fill="#C8C9CB"/>
<path d="M49.768 47.62C49.312 47.62 48.888 47.56 48.496 47.44C48.112 47.32 47.76 47.14 47.44 46.9C47.128 46.652 46.848 46.348 46.6 45.988L47.488 44.968C47.88 45.528 48.256 45.916 48.616 46.132C48.976 46.348 49.404 46.456 49.9 46.456C50.204 46.456 50.48 46.408 50.728 46.312C50.976 46.216 51.172 46.084 51.316 45.916C51.46 45.748 51.532 45.556 51.532 45.34C51.532 45.196 51.508 45.06 51.46 44.932C51.412 44.804 51.336 44.688 51.232 44.584C51.136 44.48 51.008 44.384 50.848 44.296C50.696 44.208 50.516 44.132 50.308 44.068C50.1 43.996 49.86 43.936 49.588 43.888C49.156 43.8 48.78 43.684 48.46 43.54C48.14 43.396 47.872 43.216 47.656 43C47.44 42.784 47.28 42.54 47.176 42.268C47.072 41.988 47.02 41.676 47.02 41.332C47.02 40.996 47.092 40.684 47.236 40.396C47.388 40.108 47.592 39.86 47.848 39.652C48.112 39.436 48.42 39.272 48.772 39.16C49.124 39.04 49.504 38.98 49.912 38.98C50.344 38.98 50.74 39.036 51.1 39.148C51.46 39.26 51.78 39.428 52.06 39.652C52.34 39.868 52.572 40.136 52.756 40.456L51.844 41.356C51.684 41.092 51.504 40.872 51.304 40.696C51.104 40.512 50.884 40.376 50.644 40.288C50.404 40.192 50.148 40.144 49.876 40.144C49.564 40.144 49.292 40.192 49.06 40.288C48.828 40.384 48.644 40.52 48.508 40.696C48.38 40.864 48.316 41.064 48.316 41.296C48.316 41.464 48.348 41.62 48.412 41.764C48.476 41.9 48.572 42.024 48.7 42.136C48.836 42.24 49.016 42.336 49.24 42.424C49.464 42.504 49.732 42.576 50.044 42.64C50.484 42.736 50.876 42.86 51.22 43.012C51.564 43.156 51.856 43.328 52.096 43.528C52.336 43.728 52.516 43.952 52.636 44.2C52.764 44.448 52.828 44.716 52.828 45.004C52.828 45.54 52.704 46.004 52.456 46.396C52.208 46.788 51.856 47.092 51.4 47.308C50.944 47.516 50.4 47.62 49.768 47.62ZM56.7763 47.62C56.2563 47.62 55.7803 47.476 55.3483 47.188C54.9243 46.9 54.5843 46.508 54.3283 46.012C54.0723 45.516 53.9443 44.956 53.9443 44.332C53.9443 43.7 54.0723 43.14 54.3283 42.652C54.5923 42.156 54.9443 41.768 55.3843 41.488C55.8323 41.208 56.3323 41.068 56.8843 41.068C57.2123 41.068 57.5123 41.116 57.7843 41.212C58.0563 41.308 58.2923 41.444 58.4923 41.62C58.7003 41.788 58.8683 41.984 58.9963 42.208C59.1323 42.432 59.2163 42.672 59.2483 42.928L58.9723 42.832V41.2H60.2203V47.5H58.9723V46L59.2603 45.916C59.2123 46.132 59.1123 46.344 58.9603 46.552C58.8163 46.752 58.6283 46.932 58.3963 47.092C58.1723 47.252 57.9203 47.38 57.6403 47.476C57.3683 47.572 57.0803 47.62 56.7763 47.62ZM57.1003 46.48C57.4763 46.48 57.8083 46.388 58.0963 46.204C58.3843 46.02 58.6083 45.768 58.7683 45.448C58.9363 45.12 59.0203 44.748 59.0203 44.332C59.0203 43.924 58.9363 43.56 58.7683 43.24C58.6083 42.92 58.3843 42.668 58.0963 42.484C57.8083 42.3 57.4763 42.208 57.1003 42.208C56.7323 42.208 56.4043 42.3 56.1163 42.484C55.8363 42.668 55.6123 42.92 55.4443 43.24C55.2843 43.56 55.2043 43.924 55.2043 44.332C55.2043 44.748 55.2843 45.12 55.4443 45.448C55.6123 45.768 55.8363 46.02 56.1163 46.204C56.4043 46.388 56.7323 46.48 57.1003 46.48ZM62.726 47.5V39.592H63.962V47.5H62.726ZM61.418 42.4V41.2H65.426V42.4H61.418ZM66.7555 47.5V41.2H67.9915V47.5H66.7555ZM67.3555 39.808C67.0915 39.808 66.8875 39.74 66.7435 39.604C66.5995 39.468 66.5275 39.276 66.5275 39.028C66.5275 38.796 66.5995 38.608 66.7435 38.464C66.8955 38.32 67.0995 38.248 67.3555 38.248C67.6195 38.248 67.8235 38.316 67.9675 38.452C68.1115 38.588 68.1835 38.78 68.1835 39.028C68.1835 39.26 68.1075 39.448 67.9555 39.592C67.8115 39.736 67.6115 39.808 67.3555 39.808ZM71.9553 47.5L69.2913 41.2H70.6233L72.5433 45.916L72.3153 46.024L74.3673 41.2H75.6393L72.8433 47.5H71.9553ZM79.0185 47.62C78.4985 47.62 78.0225 47.476 77.5905 47.188C77.1665 46.9 76.8265 46.508 76.5705 46.012C76.3145 45.516 76.1865 44.956 76.1865 44.332C76.1865 43.7 76.3145 43.14 76.5705 42.652C76.8345 42.156 77.1865 41.768 77.6265 41.488C78.0745 41.208 78.5745 41.068 79.1265 41.068C79.4545 41.068 79.7545 41.116 80.0265 41.212C80.2985 41.308 80.5345 41.444 80.7345 41.62C80.9425 41.788 81.1105 41.984 81.2385 42.208C81.3745 42.432 81.4585 42.672 81.4905 42.928L81.2145 42.832V41.2H82.4625V47.5H81.2145V46L81.5025 45.916C81.4545 46.132 81.3545 46.344 81.2025 46.552C81.0585 46.752 80.8705 46.932 80.6385 47.092C80.4145 47.252 80.1625 47.38 79.8825 47.476C79.6105 47.572 79.3225 47.62 79.0185 47.62ZM79.3425 46.48C79.7185 46.48 80.0505 46.388 80.3385 46.204C80.6265 46.02 80.8505 45.768 81.0105 45.448C81.1785 45.12 81.2625 44.748 81.2625 44.332C81.2625 43.924 81.1785 43.56 81.0105 43.24C80.8505 42.92 80.6265 42.668 80.3385 42.484C80.0505 42.3 79.7185 42.208 79.3425 42.208C78.9745 42.208 78.6465 42.3 78.3585 42.484C78.0785 42.668 77.8545 42.92 77.6865 43.24C77.5265 43.56 77.4465 43.924 77.4465 44.332C77.4465 44.748 77.5265 45.12 77.6865 45.448C77.8545 45.768 78.0785 46.02 78.3585 46.204C78.6465 46.388 78.9745 46.48 79.3425 46.48ZM89.2915 46.912V40.096L89.7355 40.432L88.0795 41.308L87.7315 40.18L89.9755 38.98H90.5995V46.912H89.2915ZM87.9595 47.5V46.252H91.9675V47.5H87.9595ZM96.3235 47.62C95.6835 47.62 95.1315 47.444 94.6675 47.092C94.2115 46.74 93.8595 46.244 93.6115 45.604C93.3635 44.956 93.2395 44.188 93.2395 43.3C93.2395 42.412 93.3635 41.648 93.6115 41.008C93.8595 40.36 94.2115 39.86 94.6675 39.508C95.1315 39.156 95.6835 38.98 96.3235 38.98C96.9635 38.98 97.5155 39.156 97.9795 39.508C98.4435 39.86 98.7995 40.36 99.0475 41.008C99.2955 41.648 99.4195 42.412 99.4195 43.3C99.4195 44.188 99.2955 44.956 99.0475 45.604C98.7995 46.244 98.4435 46.74 97.9795 47.092C97.5155 47.444 96.9635 47.62 96.3235 47.62ZM96.3235 46.444C96.9075 46.444 97.3595 46.172 97.6795 45.628C97.9995 45.076 98.1595 44.3 98.1595 43.3C98.1595 42.3 97.9995 41.528 97.6795 40.984C97.3595 40.432 96.9075 40.156 96.3235 40.156C95.7395 40.156 95.2875 40.432 94.9675 40.984C94.6475 41.528 94.4875 42.3 94.4875 43.3C94.4875 44.3 94.6475 45.076 94.9675 45.628C95.2875 46.172 95.7395 46.444 96.3235 46.444ZM103.613 47.62C102.973 47.62 102.421 47.444 101.957 47.092C101.501 46.74 101.149 46.244 100.901 45.604C100.653 44.956 100.529 44.188 100.529 43.3C100.529 42.412 100.653 41.648 100.901 41.008C101.149 40.36 101.501 39.86 101.957 39.508C102.421 39.156 102.973 38.98 103.613 38.98C104.253 38.98 104.805 39.156 105.269 39.508C105.733 39.86 106.089 40.36 106.337 41.008C106.585 41.648 106.709 42.412 106.709 43.3C106.709 44.188 106.585 44.956 106.337 45.604C106.089 46.244 105.733 46.74 105.269 47.092C104.805 47.444 104.253 47.62 103.613 47.62ZM103.613 46.444C104.197 46.444 104.649 46.172 104.969 45.628C105.289 45.076 105.449 44.3 105.449 43.3C105.449 42.3 105.289 41.528 104.969 40.984C104.649 40.432 104.197 40.156 103.613 40.156C103.029 40.156 102.577 40.432 102.257 40.984C101.937 41.528 101.777 42.3 101.777 43.3C101.777 44.3 101.937 45.076 102.257 45.628C102.577 46.172 103.029 46.444 103.613 46.444ZM108.814 47.5L114.37 39.1H115.606L109.99 47.5H108.814ZM109.582 43.552C109.222 43.552 108.902 43.456 108.622 43.264C108.35 43.064 108.134 42.796 107.974 42.46C107.822 42.116 107.746 41.724 107.746 41.284C107.746 40.844 107.822 40.452 107.974 40.108C108.134 39.756 108.354 39.484 108.634 39.292C108.914 39.092 109.234 38.992 109.594 38.992C109.954 38.992 110.27 39.092 110.542 39.292C110.822 39.484 111.038 39.756 111.19 40.108C111.35 40.452 111.43 40.844 111.43 41.284C111.43 41.708 111.35 42.092 111.19 42.436C111.03 42.78 110.81 43.052 110.53 43.252C110.25 43.452 109.934 43.552 109.582 43.552ZM109.594 42.652C109.762 42.652 109.906 42.596 110.026 42.484C110.154 42.372 110.25 42.216 110.314 42.016C110.386 41.808 110.422 41.564 110.422 41.284C110.422 41.004 110.386 40.76 110.314 40.552C110.25 40.344 110.154 40.184 110.026 40.072C109.906 39.96 109.758 39.904 109.582 39.904C109.414 39.904 109.266 39.964 109.138 40.084C109.01 40.196 108.91 40.356 108.838 40.564C108.774 40.764 108.742 41.004 108.742 41.284C108.742 41.564 108.774 41.808 108.838 42.016C108.91 42.216 109.01 42.372 109.138 42.484C109.266 42.596 109.418 42.652 109.594 42.652ZM114.898 47.608C114.538 47.608 114.218 47.508 113.938 47.308C113.666 47.108 113.45 46.84 113.29 46.504C113.13 46.16 113.05 45.772 113.05 45.34C113.05 44.9 113.126 44.508 113.278 44.164C113.438 43.812 113.658 43.54 113.938 43.348C114.218 43.148 114.538 43.048 114.898 43.048C115.258 43.048 115.574 43.148 115.846 43.348C116.126 43.54 116.342 43.812 116.494 44.164C116.654 44.508 116.734 44.9 116.734 45.34C116.734 45.764 116.654 46.148 116.494 46.492C116.334 46.836 116.114 47.108 115.834 47.308C115.562 47.508 115.25 47.608 114.898 47.608ZM114.898 46.72C115.066 46.72 115.214 46.664 115.342 46.552C115.47 46.432 115.566 46.272 115.63 46.072C115.702 45.864 115.738 45.62 115.738 45.34C115.738 45.06 115.702 44.82 115.63 44.62C115.566 44.412 115.47 44.252 115.342 44.14C115.214 44.02 115.066 43.96 114.898 43.96C114.722 43.96 114.57 44.016 114.442 44.128C114.314 44.24 114.214 44.4 114.142 44.608C114.078 44.816 114.046 45.06 114.046 45.34C114.046 45.62 114.078 45.864 114.142 46.072C114.214 46.272 114.314 46.432 114.442 46.552C114.57 46.664 114.722 46.72 114.898 46.72Z" fill="#05422C"/>
</svg>

