<svg width="272" height="32" viewBox="0 0 272 32" fill="none" xmlns="http://www.w3.org/2000/svg">
<rect width="56" height="32" rx="6" fill="white"/>
<circle cx="22" cy="16" r="9" fill="#E80B26"/>
<circle cx="34" cy="16" r="9" fill="#F59D31"/>
<path d="M28 22.7085C29.8413 21.0605 31 18.6658 31 16.0002C31 13.3347 29.8413 10.9399 28 9.29199C26.1587 10.9399 25 13.3347 25 16.0002C25 18.6658 26.1587 21.0605 28 22.7085Z" fill="#FC6020"/>
<rect x="72" width="56" height="32" rx="6" fill="white"/>
<path d="M100.604 14.0641C100.583 15.5597 102.013 16.3944 103.089 16.8907C104.195 17.3999 104.567 17.7263 104.563 18.1816C104.554 18.8785 103.68 19.1861 102.862 19.198C101.435 19.219 100.606 18.8336 99.946 18.5421L99.432 20.8175C100.094 21.1061 101.319 21.3577 102.59 21.3687C105.573 21.3687 107.524 19.9758 107.535 17.8162C107.547 15.0755 103.527 14.9237 103.555 13.6986C103.564 13.3272 103.939 12.9308 104.76 12.83C105.166 12.7791 106.288 12.7401 107.56 13.2943L108.06 11.0927C107.376 10.8571 106.496 10.6314 105.402 10.6314C102.594 10.6314 100.619 12.0432 100.604 14.0641ZM112.857 10.8211C112.312 10.8211 111.853 11.1217 111.648 11.583L107.387 21.2069H110.368L110.961 19.6563H114.604L114.948 21.2069H117.575L115.282 10.8211H112.857ZM113.274 13.6268L114.134 17.5267H111.778L113.274 13.6268ZM96.9895 10.8211L94.64 21.2069H97.4803L99.8288 10.8211H96.9895ZM92.7876 10.8211L89.8312 17.8901L88.6353 11.8795C88.4949 11.2085 87.9408 10.8211 87.3255 10.8211H82.4924L82.4248 11.1227C83.417 11.3264 84.5442 11.6548 85.2271 12.0063C85.6451 12.221 85.7644 12.4087 85.9016 12.9189L88.1667 21.2069H91.1685L95.7704 10.8211H92.7876Z" fill="url(#paint0_linear_1_14387)"/>
<rect x="144" width="56" height="32" rx="6" fill="white"/>
<path d="M181.701 18.4183C180.365 23.7783 174.934 27.0365 169.582 25.7004C164.222 24.3643 160.963 18.934 162.3 13.5817C163.636 8.22169 169.058 4.96347 174.419 6.29958C179.771 7.62787 183.037 13.0582 181.701 18.4183Z" fill="url(#paint1_linear_1_14387)"/>
<path d="M176.761 14.7539C176.956 13.4258 175.948 12.707 174.558 12.2305L175.011 10.4258L173.917 10.1523L173.479 11.9102C173.19 11.8398 172.894 11.7695 172.597 11.707L173.034 9.94141L171.94 9.66797L171.495 11.4648C171.253 11.4102 171.019 11.3555 170.792 11.3008V11.293L169.276 10.918L168.987 12.0898C168.987 12.0898 169.8 12.2773 169.784 12.2852C170.229 12.3945 170.308 12.6914 170.292 12.9258L169.776 14.9805C169.808 14.9883 169.847 14.9961 169.894 15.0195C169.854 15.0117 169.815 15.0039 169.776 14.9883L169.058 17.8633C169.003 17.9961 168.862 18.1992 168.558 18.1211C168.565 18.1367 167.761 17.9258 167.761 17.9258L167.214 19.1836L168.644 19.543C168.909 19.6133 169.167 19.6758 169.425 19.7461L168.972 21.5664L170.065 21.8398L170.519 20.0352C170.815 20.1133 171.112 20.1914 171.394 20.2617L170.948 22.0586L172.042 22.332L172.495 20.5117C174.37 20.8633 175.776 20.7227 176.362 19.0273C176.839 17.668 176.339 16.8789 175.354 16.3633C176.081 16.1992 176.62 15.7227 176.761 14.7539ZM174.253 18.2695C173.917 19.6289 171.62 18.8945 170.878 18.707L171.479 16.293C172.222 16.4805 174.612 16.8477 174.253 18.2695ZM174.597 14.7305C174.284 15.9727 172.378 15.3398 171.761 15.1836L172.308 12.9961C172.925 13.1523 174.917 13.4414 174.597 14.7305Z" fill="white"/>
<rect x="216" width="56" height="32" rx="6" fill="white"/>
<mask id="mask0_1_14387" style="mask-type:luminance" maskUnits="userSpaceOnUse" x="234" y="6" width="20" height="20">
<path d="M234 6H254V26H234V6Z" fill="white"/>
</mask>
<g mask="url(#mask0_1_14387)">
<path d="M235.951 6.34082H252.049C252.261 6.34081 252.47 6.38243 252.665 6.46333C252.861 6.54423 253.038 6.6628 253.188 6.8123C253.337 6.96179 253.456 7.13926 253.537 7.33459C253.618 7.52992 253.659 7.73927 253.659 7.9507V24.0495C253.659 24.2609 253.618 24.4702 253.537 24.6656C253.456 24.8609 253.337 25.0383 253.188 25.1878C253.038 25.3373 252.861 25.4559 252.665 25.5367C252.47 25.6176 252.261 25.6593 252.049 25.6592H235.95C235.524 25.6592 235.114 25.4897 234.812 25.1878C234.51 24.886 234.341 24.4766 234.341 24.0497V7.95058C234.341 7.52364 234.51 7.11419 234.812 6.8123C235.114 6.51042 235.524 6.34082 235.951 6.34082Z" fill="#FDB913"/>
<path d="M252.049 6.34073C252.476 6.34085 252.886 6.51052 253.187 6.81244C253.489 7.11436 253.659 7.52379 253.659 7.95072V24.0494C253.659 24.4763 253.489 24.8857 253.187 25.1876C252.886 25.4895 252.476 25.6592 252.049 25.6593H235.951C235.739 25.6593 235.53 25.6177 235.334 25.5368C235.139 25.4559 234.962 25.3373 234.812 25.1878C234.663 25.0383 234.544 24.8609 234.463 24.6655C234.382 24.4702 234.341 24.2608 234.341 24.0494V7.95072C234.341 7.73929 234.382 7.52992 234.463 7.33458C234.544 7.13923 234.663 6.96173 234.812 6.81222C234.962 6.66271 235.139 6.54412 235.334 6.46322C235.53 6.38232 235.739 6.3407 235.951 6.34073H252.049ZM252.049 6H235.951C235.433 6.00055 234.938 6.20625 234.572 6.57196C234.206 6.93768 234.001 7.43354 234 7.95072V24.0494C234.001 24.5665 234.206 25.0624 234.572 25.428C234.938 25.7937 235.433 25.9994 235.951 26H252.049C252.566 25.9994 253.062 25.7937 253.428 25.428C253.793 25.0623 253.999 24.5665 254 24.0494V7.95072C253.999 7.43357 253.794 6.93773 253.428 6.57201C253.062 6.2063 252.566 6.00058 252.049 6Z" fill="white"/>
<path d="M245.127 16.2084L245.126 12.7496L246.028 12.5354V12.9889C246.028 12.9889 246.262 12.3926 246.805 12.2542C246.886 12.2281 246.972 12.2223 247.056 12.2373V13.1198C246.893 13.122 246.733 13.1554 246.583 13.2183C246.249 13.35 246.081 13.6375 246.081 14.0764L246.082 15.9862L245.127 16.2084ZM240.368 17.3332C240.368 17.3332 240.221 17.1131 240.221 16.3348V14.6128L239.756 14.7233V14.0137L240.222 13.9038V13.1303L241.182 12.9036V13.677L241.86 13.5159V14.2245L241.182 14.3855C241.182 14.3855 241.181 15.7965 241.182 16.1391C241.182 16.9366 241.394 17.0897 241.394 17.0897L240.368 17.3332ZM241.961 15.2755C241.961 14.6606 242.048 14.212 242.236 13.8677C242.46 13.4592 242.827 13.1929 243.361 13.0713C244.414 12.8318 244.794 13.4552 244.78 14.2911C244.774 14.59 244.775 14.7357 244.775 14.7357L242.92 15.1718V15.2016C242.92 15.7858 243.042 16.0629 243.412 15.9843C243.732 15.9169 243.821 15.7167 243.846 15.469C243.851 15.4291 243.852 15.3275 243.852 15.3275L244.722 15.1192C244.722 15.1192 244.724 15.1904 244.722 15.2702C244.715 15.6021 244.618 16.4254 243.41 16.7111C242.266 16.9827 241.961 16.2838 241.961 15.2754M243.4 13.7156C243.092 13.7853 242.931 14.0869 242.924 14.5866L243.857 14.3643C243.859 14.3417 243.859 14.2919 243.859 14.2139C243.857 13.8366 243.741 13.6375 243.4 13.7156ZM250.305 13.2528C250.269 12.1994 250.543 11.3634 251.718 11.0972C252.467 10.927 252.751 11.1218 252.895 11.3102C253.034 11.4899 253.087 11.7322 253.087 12.0717L253.088 12.134L252.169 12.3525L252.168 12.2246C252.169 11.822 252.057 11.6689 251.764 11.7421C251.417 11.8295 251.276 12.1595 251.276 12.8157C251.276 13.0487 251.277 13.0905 251.277 13.1219C251.277 13.7888 251.368 14.094 251.769 14.0102C252.117 13.9383 252.164 13.633 252.17 13.3654C252.171 13.3234 252.172 13.1889 252.172 13.1889L253.091 12.972C253.091 12.972 253.091 13.0398 253.091 13.1152C253.089 13.9897 252.628 14.5408 251.765 14.7418C250.575 15.0206 250.342 14.3332 250.305 13.2528M247.127 14.7276C247.127 13.9264 247.596 13.673 248.303 13.3807C248.938 13.1179 248.952 12.9874 248.954 12.759C248.958 12.5668 248.869 12.4023 248.553 12.483C248.447 12.5043 248.352 12.5605 248.282 12.6427C248.213 12.7248 248.173 12.828 248.17 12.9355C248.165 12.9946 248.163 13.0538 248.164 13.1131L247.273 13.3234C247.267 13.1459 247.288 12.9685 247.334 12.7971C247.477 12.318 247.899 11.9956 248.629 11.8268C249.577 11.6084 249.892 12.0243 249.894 12.6712V14.2032C249.894 14.9441 250.031 15.0527 250.031 15.0527L249.157 15.2596C249.108 15.1585 249.069 15.0534 249.039 14.9455C249.039 14.9455 248.848 15.4279 248.188 15.5831C247.494 15.7466 247.127 15.3168 247.127 14.7276ZM248.948 13.6335C248.801 13.7369 248.645 13.828 248.483 13.906C248.192 14.0484 248.06 14.2241 248.06 14.4947C248.06 14.729 248.205 14.8829 248.469 14.8177C248.752 14.7464 248.948 14.4823 248.948 14.1154V13.6335ZM235.348 19.7578C235.249 19.7577 235.151 19.7306 235.065 19.6795C234.979 19.6284 234.909 19.5552 234.861 19.4675C234.814 19.3797 234.79 19.2808 234.794 19.1811C234.798 19.0813 234.829 18.9845 234.883 18.9007L234.889 18.8927L234.9 18.8899L236.206 18.5817V19.5734L236.185 19.5781C235.945 19.636 235.704 19.692 235.462 19.746C235.425 19.7539 235.387 19.7578 235.348 19.7578ZM235.348 21.0264C235.201 21.0264 235.061 20.9681 234.957 20.8642C234.853 20.7604 234.794 20.6196 234.794 20.4726C234.794 20.3656 234.825 20.2608 234.883 20.1711L234.889 20.162L234.9 20.1592L236.206 19.8511V20.8427L236.185 20.848C235.889 20.9192 235.535 21.0011 235.462 21.0157C235.425 21.0229 235.387 21.0265 235.348 21.0264ZM235.348 22.2975C235.201 22.2974 235.06 22.2389 234.956 22.135C234.853 22.0311 234.794 21.8901 234.794 21.7432C234.794 21.6361 234.825 21.5313 234.883 21.4418L234.889 21.4318L236.206 21.1216V22.1131L236.185 22.1185C235.872 22.1938 235.525 22.2723 235.462 22.2861C235.425 22.2936 235.387 22.2974 235.348 22.2975ZM236.206 12.755V18.3035L235.194 18.5427L235.194 12.9941L236.206 12.755ZM237.714 18.0705C237.715 17.9879 237.7 17.9058 237.669 17.8291C237.638 17.7524 237.592 17.6826 237.534 17.6237C237.476 17.5649 237.407 17.5181 237.331 17.4862C237.254 17.4543 237.173 17.4379 237.09 17.4379C237.007 17.4379 236.925 17.4543 236.849 17.4862C236.773 17.5181 236.704 17.5649 236.645 17.6237C236.587 17.6826 236.542 17.7524 236.511 17.8291C236.48 17.9058 236.465 17.9879 236.466 18.0705L236.467 23.2566C236.467 23.7045 236.645 24.1338 236.962 24.4506C237.279 24.7674 237.708 24.9457 238.156 24.9466C238.628 24.9466 239.922 24.9443 239.922 24.9443L239.923 22.7808L239.923 20.3682C239.924 20.2337 239.891 20.1012 239.827 19.9826C239.764 19.8639 239.672 19.7627 239.56 19.688L237.986 18.6184L237.985 21.0471C237.985 21.0648 237.982 21.0822 237.975 21.0985C237.969 21.1148 237.959 21.1296 237.946 21.1421C237.934 21.1545 237.919 21.1644 237.903 21.1712C237.886 21.1779 237.869 21.1814 237.851 21.1814C237.834 21.1814 237.816 21.1779 237.8 21.1712C237.784 21.1644 237.769 21.1545 237.756 21.1421C237.744 21.1296 237.734 21.1148 237.727 21.0985C237.72 21.0822 237.717 21.0648 237.717 21.0471C237.717 21.0211 237.714 18.3913 237.714 18.0705ZM238.557 14.2013C238.366 14.2458 238.186 14.3309 238.031 14.4511C237.875 14.5712 237.748 14.7235 237.656 14.8975V14.5075L236.746 14.7231L236.747 17.2134C236.907 17.1502 237.081 17.1325 237.25 17.162C237.419 17.1916 237.577 17.2674 237.706 17.3811V15.7732C237.706 15.388 237.897 15.0803 238.171 15.0199C238.377 14.9747 238.549 15.0484 238.549 15.4153L238.55 17.7613L239.509 17.5363V15.0546C239.509 14.4529 239.278 14.0323 238.557 14.2013ZM252.497 10.65C252.379 10.6502 252.264 10.6155 252.167 10.5503C252.069 10.4852 251.993 10.3926 251.948 10.2842C251.903 10.1758 251.891 10.0565 251.914 9.94143C251.937 9.82634 251.994 9.7206 252.077 9.63762C252.16 9.55464 252.265 9.49813 252.38 9.47525C252.495 9.45237 252.615 9.46415 252.723 9.50909C252.832 9.55403 252.924 9.63012 252.989 9.72773C253.054 9.82533 253.089 9.94007 253.089 10.0574C253.089 10.2145 253.026 10.3652 252.915 10.4763C252.804 10.5874 252.654 10.6498 252.497 10.65ZM252.497 9.53869C252.394 9.53867 252.294 9.56906 252.208 9.62603C252.123 9.683 252.057 9.76398 252.017 9.85873C251.978 9.95349 251.968 10.0578 251.988 10.1584C252.008 10.259 252.057 10.3514 252.13 10.4239C252.202 10.4965 252.295 10.5459 252.395 10.5659C252.496 10.586 252.6 10.5757 252.695 10.5365C252.79 10.4972 252.871 10.4308 252.928 10.3455C252.985 10.2602 253.015 10.16 253.015 10.0574C253.015 9.91992 252.96 9.78808 252.863 9.69084C252.766 9.59359 252.634 9.53887 252.497 9.53869Z" fill="#231F20"/>
<path d="M252.28 9.70408H252.536C252.561 9.7014 252.586 9.70439 252.61 9.71282C252.633 9.72124 252.655 9.7349 252.673 9.75276C252.69 9.77063 252.704 9.79224 252.712 9.816C252.72 9.83976 252.723 9.86505 252.72 9.88999C252.72 9.98398 252.678 10.0562 252.599 10.0684V10.0698C252.671 10.0772 252.709 10.1168 252.712 10.2186C252.714 10.2645 252.714 10.3214 252.716 10.3657C252.717 10.3782 252.72 10.3904 252.726 10.4013C252.732 10.4123 252.74 10.4215 252.751 10.4282H252.62C252.608 10.4091 252.601 10.3868 252.601 10.364C252.597 10.3207 252.598 10.2798 252.596 10.2273C252.594 10.1483 252.57 10.1137 252.49 10.1137H252.396V10.4281H252.28V9.70408ZM252.488 10.0266C252.504 10.028 252.52 10.0259 252.535 10.0205C252.549 10.0151 252.563 10.0064 252.574 9.99521C252.585 9.98398 252.593 9.97043 252.598 9.95555C252.604 9.94067 252.605 9.92483 252.604 9.90916C252.604 9.83192 252.571 9.7913 252.494 9.7913H252.396V10.0266H252.488Z" fill="#231F20"/>
</g>
<defs>
<linearGradient id="paint0_linear_1_14387" x1="98.5847" y1="21.5841" x2="98.8787" y2="10.5559" gradientUnits="userSpaceOnUse">
<stop stop-color="#222357"/>
<stop offset="1" stop-color="#254AA5"/>
</linearGradient>
<linearGradient id="paint1_linear_1_14387" x1="171.995" y1="5.99529" x2="171.995" y2="25.998" gradientUnits="userSpaceOnUse">
<stop stop-color="#F9AA4B"/>
<stop offset="1" stop-color="#F7931A"/>
</linearGradient>
</defs>
</svg>
