<svg width="138" height="13" viewBox="0 0 138 13" fill="none" xmlns="http://www.w3.org/2000/svg">
<path d="M1.116 9.5L0.72 8.516L3.288 5.624C3.424 5.48 3.564 5.316 3.708 5.132C3.86 4.94 4.004 4.744 4.14 4.544C4.276 4.344 4.384 4.148 4.464 3.956C4.552 3.756 4.596 3.568 4.596 3.392C4.596 3.136 4.544 2.92 4.44 2.744C4.344 2.56 4.2 2.42 4.008 2.324C3.824 2.228 3.6 2.18 3.336 2.18C3.104 2.18 2.876 2.248 2.652 2.384C2.428 2.52 2.224 2.712 2.04 2.96C1.856 3.208 1.712 3.496 1.608 3.824L0.612 3.2C0.748 2.736 0.952 2.34 1.224 2.012C1.504 1.676 1.836 1.42 2.22 1.244C2.612 1.068 3.036 0.98 3.492 0.98C3.964 0.98 4.384 1.08 4.752 1.28C5.12 1.472 5.408 1.744 5.616 2.096C5.824 2.44 5.928 2.84 5.928 3.296C5.928 3.48 5.908 3.668 5.868 3.86C5.828 4.052 5.764 4.252 5.676 4.46C5.588 4.66 5.476 4.872 5.34 5.096C5.204 5.312 5.04 5.54 4.848 5.78C4.664 6.02 4.452 6.272 4.212 6.536L2.304 8.612L2.064 8.252H6.192V9.5H1.116ZM10.0422 9.536C9.52222 9.536 9.04622 9.428 8.61422 9.212C8.19022 8.988 7.85022 8.692 7.59422 8.324C7.33822 7.956 7.21022 7.548 7.21022 7.1C7.21022 6.852 7.24222 6.62 7.30622 6.404C7.37822 6.18 7.48222 5.976 7.61822 5.792C7.76222 5.608 7.93422 5.44 8.13422 5.288C8.33422 5.136 8.56622 5 8.83022 4.88L8.75822 5.132C8.55022 5.052 8.36222 4.956 8.19422 4.844C8.03422 4.724 7.89422 4.588 7.77422 4.436C7.65422 4.284 7.56222 4.12 7.49822 3.944C7.44222 3.768 7.41422 3.584 7.41422 3.392C7.41422 2.968 7.53022 2.584 7.76222 2.24C8.00222 1.896 8.31822 1.62 8.71022 1.412C9.11022 1.204 9.55422 1.1 10.0422 1.1C10.5302 1.1 10.9702 1.204 11.3622 1.412C11.7622 1.62 12.0782 1.896 12.3102 2.24C12.5502 2.584 12.6702 2.968 12.6702 3.392C12.6702 3.584 12.6382 3.768 12.5742 3.944C12.5182 4.12 12.4342 4.28 12.3222 4.424C12.2102 4.568 12.0662 4.7 11.8902 4.82C11.7222 4.94 11.5302 5.044 11.3142 5.132L11.2782 4.928C11.5182 5.024 11.7342 5.148 11.9262 5.3C12.1262 5.452 12.2982 5.624 12.4422 5.816C12.5862 6.008 12.6942 6.212 12.7662 6.428C12.8462 6.644 12.8862 6.868 12.8862 7.1C12.8862 7.556 12.7582 7.968 12.5022 8.336C12.2462 8.704 11.9022 8.996 11.4702 9.212C11.0462 9.428 10.5702 9.536 10.0422 9.536ZM10.0422 8.336C10.3382 8.336 10.6022 8.28 10.8342 8.168C11.0742 8.056 11.2622 7.904 11.3982 7.712C11.5342 7.52 11.6022 7.3 11.6022 7.052C11.6022 6.788 11.5342 6.556 11.3982 6.356C11.2622 6.148 11.0742 5.984 10.8342 5.864C10.6022 5.744 10.3382 5.684 10.0422 5.684C9.74622 5.684 9.48222 5.744 9.25022 5.864C9.01822 5.984 8.83422 6.148 8.69822 6.356C8.56222 6.556 8.49422 6.788 8.49422 7.052C8.49422 7.292 8.56222 7.508 8.69822 7.7C8.83422 7.892 9.01822 8.048 9.25022 8.168C9.48222 8.28 9.74622 8.336 10.0422 8.336ZM10.0422 4.532C10.2982 4.532 10.5262 4.484 10.7262 4.388C10.9342 4.292 11.0942 4.164 11.2062 4.004C11.3262 3.836 11.3862 3.644 11.3862 3.428C11.3862 3.212 11.3262 3.02 11.2062 2.852C11.0942 2.684 10.9342 2.552 10.7262 2.456C10.5262 2.352 10.2982 2.3 10.0422 2.3C9.78622 2.3 9.55422 2.352 9.34622 2.456C9.14622 2.552 8.98622 2.684 8.86622 2.852C8.75422 3.02 8.69822 3.212 8.69822 3.428C8.69822 3.644 8.75422 3.836 8.86622 4.004C8.98622 4.164 9.14622 4.292 9.34622 4.388C9.55422 4.484 9.78622 4.532 10.0422 4.532ZM17.2074 12.26C16.7594 12.26 16.3114 12.188 15.8634 12.044C15.4234 11.908 15.0674 11.728 14.7954 11.504L15.2514 10.544C15.4114 10.664 15.5994 10.768 15.8154 10.856C16.0314 10.952 16.2594 11.024 16.4994 11.072C16.7394 11.128 16.9754 11.156 17.2074 11.156C17.6474 11.156 18.0154 11.084 18.3114 10.94C18.6074 10.796 18.8314 10.584 18.9834 10.304C19.1354 10.024 19.2114 9.676 19.2114 9.26V8.048L19.3434 8.132C19.3034 8.38 19.1714 8.62 18.9474 8.852C18.7314 9.076 18.4594 9.26 18.1314 9.404C17.8034 9.548 17.4674 9.62 17.1234 9.62C16.5234 9.62 15.9874 9.48 15.5154 9.2C15.0514 8.912 14.6834 8.524 14.4114 8.036C14.1394 7.54 14.0034 6.976 14.0034 6.344C14.0034 5.712 14.1354 5.152 14.3994 4.664C14.6714 4.168 15.0394 3.78 15.5034 3.5C15.9754 3.212 16.5034 3.068 17.0874 3.068C17.3274 3.068 17.5594 3.1 17.7834 3.164C18.0074 3.22 18.2154 3.304 18.4074 3.416C18.5994 3.52 18.7714 3.636 18.9234 3.764C19.0754 3.892 19.1994 4.028 19.2954 4.172C19.3914 4.316 19.4514 4.452 19.4754 4.58L19.2114 4.676V3.2H20.4474V9.116C20.4474 9.62 20.3714 10.064 20.2194 10.448C20.0754 10.84 19.8634 11.168 19.5834 11.432C19.3034 11.704 18.9634 11.908 18.5634 12.044C18.1634 12.188 17.7114 12.26 17.2074 12.26ZM17.2554 8.48C17.6474 8.48 17.9954 8.388 18.2994 8.204C18.6034 8.02 18.8394 7.768 19.0074 7.448C19.1754 7.128 19.2594 6.76 19.2594 6.344C19.2594 5.928 19.1714 5.56 18.9954 5.24C18.8274 4.912 18.5914 4.656 18.2874 4.472C17.9914 4.288 17.6474 4.196 17.2554 4.196C16.8714 4.196 16.5274 4.292 16.2234 4.484C15.9274 4.668 15.6914 4.924 15.5154 5.252C15.3474 5.572 15.2634 5.936 15.2634 6.344C15.2634 6.752 15.3474 7.12 15.5154 7.448C15.6914 7.768 15.9274 8.02 16.2234 8.204C16.5274 8.388 16.8714 8.48 17.2554 8.48Z" fill="#1A1E26"/>
<path d="M52.604 8.912V2.096L53.048 2.432L51.392 3.308L51.044 2.18L53.288 0.98H53.912V8.912H52.604ZM51.272 9.5V8.252H55.28V9.5H51.272ZM56.216 11.084L61.16 1.1H62.348L57.416 11.084H56.216ZM63.4324 9.5L63.0364 8.516L65.6044 5.624C65.7404 5.48 65.8804 5.316 66.0244 5.132C66.1764 4.94 66.3204 4.744 66.4564 4.544C66.5924 4.344 66.7004 4.148 66.7804 3.956C66.8684 3.756 66.9124 3.568 66.9124 3.392C66.9124 3.136 66.8604 2.92 66.7564 2.744C66.6604 2.56 66.5164 2.42 66.3244 2.324C66.1404 2.228 65.9164 2.18 65.6524 2.18C65.4204 2.18 65.1924 2.248 64.9684 2.384C64.7444 2.52 64.5404 2.712 64.3564 2.96C64.1724 3.208 64.0284 3.496 63.9244 3.824L62.9284 3.2C63.0644 2.736 63.2684 2.34 63.5404 2.012C63.8204 1.676 64.1524 1.42 64.5364 1.244C64.9284 1.068 65.3524 0.98 65.8084 0.98C66.2804 0.98 66.7004 1.08 67.0684 1.28C67.4364 1.472 67.7244 1.744 67.9324 2.096C68.1404 2.44 68.2444 2.84 68.2444 3.296C68.2444 3.48 68.2244 3.668 68.1844 3.86C68.1444 4.052 68.0804 4.252 67.9924 4.46C67.9044 4.66 67.7924 4.872 67.6564 5.096C67.5204 5.312 67.3564 5.54 67.1644 5.78C66.9804 6.02 66.7684 6.272 66.5284 6.536L64.6204 8.612L64.3804 8.252H68.5084V9.5H63.4324ZM69.7786 9.5V0.62H71.0146V9.5H69.7786ZM76.0783 9.62C75.8063 9.62 75.5343 9.576 75.2623 9.488C74.9983 9.4 74.7543 9.284 74.5303 9.14C74.3143 8.988 74.1303 8.824 73.9783 8.648C73.8343 8.464 73.7383 8.28 73.6903 8.096L74.0023 7.928V9.464H72.7663V0.62H74.0023V4.64L73.8103 4.532C73.8503 4.348 73.9383 4.172 74.0743 4.004C74.2103 3.828 74.3823 3.672 74.5903 3.536C74.8063 3.392 75.0383 3.28 75.2863 3.2C75.5343 3.112 75.7863 3.068 76.0423 3.068C76.6103 3.068 77.1143 3.208 77.5543 3.488C77.9943 3.768 78.3423 4.156 78.5983 4.652C78.8543 5.14 78.9823 5.7 78.9823 6.332C78.9823 6.964 78.8543 7.528 78.5983 8.024C78.3503 8.52 78.0063 8.912 77.5663 9.2C77.1263 9.48 76.6303 9.62 76.0783 9.62ZM75.8743 8.492C76.2423 8.492 76.5703 8.4 76.8583 8.216C77.1463 8.024 77.3743 7.768 77.5423 7.448C77.7103 7.12 77.7943 6.748 77.7943 6.332C77.7943 5.924 77.7103 5.56 77.5423 5.24C77.3823 4.912 77.1583 4.656 76.8703 4.472C76.5823 4.288 76.2503 4.196 75.8743 4.196C75.4983 4.196 75.1663 4.288 74.8783 4.472C74.5903 4.656 74.3623 4.912 74.1943 5.24C74.0263 5.56 73.9423 5.924 73.9423 6.332C73.9423 6.748 74.0263 7.12 74.1943 7.448C74.3623 7.768 74.5903 8.024 74.8783 8.216C75.1663 8.4 75.4983 8.492 75.8743 8.492Z" fill="#1A1E26"/>
<path d="M110.604 8.912V2.096L111.048 2.432L109.392 3.308L109.044 2.18L111.288 0.98H111.912V8.912H110.604ZM109.272 9.5V8.252H113.28V9.5H109.272ZM114.216 11.084L119.16 1.1H120.348L115.416 11.084H114.216ZM124.189 9.5V2.732L124.489 2.804L121.729 6.176L121.681 6.032H126.901V7.22H120.877L120.325 6.14L124.441 1.1H125.437V9.5H124.189ZM128.294 9.5V0.62H129.53V9.5H128.294ZM134.594 9.62C134.322 9.62 134.05 9.576 133.778 9.488C133.514 9.4 133.27 9.284 133.046 9.14C132.83 8.988 132.646 8.824 132.494 8.648C132.35 8.464 132.254 8.28 132.206 8.096L132.518 7.928V9.464H131.282V0.62H132.518V4.64L132.326 4.532C132.366 4.348 132.454 4.172 132.59 4.004C132.726 3.828 132.898 3.672 133.106 3.536C133.322 3.392 133.554 3.28 133.802 3.2C134.05 3.112 134.302 3.068 134.558 3.068C135.126 3.068 135.63 3.208 136.07 3.488C136.51 3.768 136.858 4.156 137.114 4.652C137.37 5.14 137.498 5.7 137.498 6.332C137.498 6.964 137.37 7.528 137.114 8.024C136.866 8.52 136.522 8.912 136.082 9.2C135.642 9.48 135.146 9.62 134.594 9.62ZM134.39 8.492C134.758 8.492 135.086 8.4 135.374 8.216C135.662 8.024 135.89 7.768 136.058 7.448C136.226 7.12 136.31 6.748 136.31 6.332C136.31 5.924 136.226 5.56 136.058 5.24C135.898 4.912 135.674 4.656 135.386 4.472C135.098 4.288 134.766 4.196 134.39 4.196C134.014 4.196 133.682 4.288 133.394 4.472C133.106 4.656 132.878 4.912 132.71 5.24C132.542 5.56 132.458 5.924 132.458 6.332C132.458 6.748 132.542 7.12 132.71 7.448C132.878 7.768 133.106 8.024 133.394 8.216C133.682 8.4 134.014 8.492 134.39 8.492Z" fill="#1A1E26"/>
</svg>


